<?xml version="1.0" encoding="utf-8"?>
<!-- Generator: Adobe Illustrator 23.0.3, SVG Export Plug-In . SVG Version: 6.00 Build 0)  -->
<svg version="1.1" id="Слой_1" xmlns="http://www.w3.org/2000/svg" xmlns:xlink="http://www.w3.org/1999/xlink" x="0px" y="0px"
	 viewBox="0 0 967 932.6" style="enable-background:new 0 0 967 932.6;" xml:space="preserve">
<style type="text/css">
	.st0{fill:#AFAFAF;}
	.st1{fill:#FFFFFF;stroke:#000000;stroke-miterlimit:10;}
	.st2{fill:#231F20;}
</style>
<g>
	<g>
		<path id="XMLID_2_" class="st0" d="M966.5,466.3c0-257.2-216.2-465.8-483-465.8S0.5,209.1,0.5,466.3s216.2,465.8,483,465.8
			S966.5,723.5,966.5,466.3z"/>
	</g>
	<g>
		<path id="XMLID_21_" class="st1" d="M966.5,466.3c0-257.2-216.2-465.8-483-465.8S0.5,209.1,0.5,466.3s216.2,465.8,483,465.8
			S966.5,723.5,966.5,466.3z"/>
		<path id="XMLID_19_" class="st2" d="M526.1,355.9v-44.2c0-21.4,14.8-26.6,25.2-26.6c10.4,0,64.2,0,64.2,0v-94.6l-88.4-0.4
			c-98.2,0-120.4,70.6-120.4,115.6v49.8h-56.8v110.4h57.2c0,125,0,275.8,0,275.8h114.4c0,0,0-152.4,0-275.8h85l10.4-110.4
			L526.1,355.9L526.1,355.9z"/>
	</g>
</g>
</svg>
