<?xml version="1.0" encoding="utf-8"?>
<!-- Generator: Adobe Illustrator 23.0.3, SVG Export Plug-In . SVG Version: 6.00 Build 0)  -->
<svg version="1.1" id="Layer_1" xmlns="http://www.w3.org/2000/svg" xmlns:xlink="http://www.w3.org/1999/xlink" x="0px" y="0px"
	 viewBox="0 0 154.6 154.6" style="enable-background:new 0 0 154.6 154.6;" xml:space="preserve">
<style type="text/css">
	.st0{fill:#FFFFFF;stroke:#000000;stroke-miterlimit:10;}
</style>
<g id="icon">
	<circle class="st0" cx="77.3" cy="77.3" r="77.3"/>
	<path d="M89.4,72.6c0.6,8.9-0.7,18.4-6.5,25.5c-7.9,10.2-22.5,13.1-34.3,9.2C36,103.1,26.8,90.5,27.1,77.2
		c-0.6-16.4,13.8-31.6,30.2-31.8c8.4-0.7,16.5,2.5,22.9,7.9c-2.6,2.9-5.3,5.7-8.1,8.3c-5.6-3.4-12.3-6-18.8-3.7
		c-10.5,3-16.9,15.4-13,25.7c3.2,10.8,16.3,16.7,26.6,12.1c5.3-1.9,8.8-6.8,10.3-12.1c-6.1-0.1-12.2,0-18.3-0.2c0-3.6,0-7.2,0-10.8
		C69.1,72.6,79.2,72.5,89.4,72.6z M118.2,72.5c0-3,0-5.7,0-9.2c-3,0-6,0-9.1,0c0,3.5-0.2,6.2-0.2,9.2c-3,0-5.7,0.2-9.2,0.2
		c0,3,0,6,0,9.1c3.5,0,6.2,0,9.2,0.1c0,3,0.1,6.1,0.1,9.1c3,0,6.1,0,9.1,0c0-3,0-6.1,0-9.1c3,0,6.2,0,9,0c0-3,0-6,0-9.1
		C124.4,72.6,121.2,72.5,118.2,72.5z"/>
</g>
</svg>
